<?xml version="1.0" encoding="iso-8859-1"?>
<!-- Generator: Adobe Illustrator 19.0.0, SVG Export Plug-In . SVG Version: 6.00 Build 0)  -->
<svg version="1.1" id="Capa_1" xmlns="http://www.w3.org/2000/svg" xmlns:xlink="http://www.w3.org/1999/xlink" x="0px" y="0px"
	 viewBox="0 0 512 512" style="enable-background:new 0 0 512 512;" xml:space="preserve">
<path style="fill:#FFE1BA;" d="M279.699,0L256,23.699L232.301,0H0v512h232.301L256,488.299L279.699,512H512V0H279.699z"/>
<polygon style="fill:#FED2A4;" points="512,0 512,512 279.699,512 256,488.299 256,23.699 279.699,0 "/>
<g>
	<rect x="61" y="331" style="fill:#913F02;" width="150" height="30"/>
	<rect x="61" y="391" style="fill:#913F02;" width="150" height="30"/>
	<rect x="301" y="91" style="fill:#913F02;" width="150" height="30"/>
	<rect x="301" y="151" style="fill:#913F02;" width="150" height="30"/>
</g>
<path style="fill:#00EED0;" d="M376,241c-41.4,0-75,33.6-75,75c0,13.2,3.6,26.1,9.901,37.5l4.499,7.5h121.201l4.499-7.5
	c6.3-11.4,9.9-24.3,9.9-37.5C451,274.6,417.4,241,376,241z"/>
<path style="fill:#FF9F00;" d="M296.8,331l22.5,90h113.4l22.5-90H296.8z"/>
<path style="fill:#FF3980;" d="M211,136c0,13.2-3.6,26.1-9.901,37.5H70.901C64.6,162.1,61,149.2,61,136c0-41.4,33.6-75,75-75
	S211,94.6,211,136z"/>
<path style="fill:#F30051;" d="M201.099,173.5H136V61c41.4,0,75,33.6,75,75C211,149.2,207.4,162.1,201.099,173.5z"/>
<g>
	<rect x="136" y="331" style="fill:#6F2E01;" width="75" height="30"/>
	<rect x="136" y="391" style="fill:#6F2E01;" width="75" height="30"/>
</g>
<path style="fill:#00CCB2;" d="M451,316c0,13.2-3.6,26.1-9.901,37.5L436.6,361H376V241C417.4,241,451,274.6,451,316z"/>
<g>
	<rect x="376" y="91" style="fill:#6F2E01;" width="75" height="30"/>
	<rect x="376" y="151" style="fill:#6F2E01;" width="75" height="30"/>
</g>
<polygon style="fill:#F77E00;" points="455.2,331 432.7,421 376,421 376,331 "/>
<path style="fill:#FF9F00;" d="M51.7,151L136,319.6L220.3,151H51.7z"/>
<polygon style="fill:#F77E00;" points="220.3,151 136,319.6 136,151 "/>
<g>
</g>
<g>
</g>
<g>
</g>
<g>
</g>
<g>
</g>
<g>
</g>
<g>
</g>
<g>
</g>
<g>
</g>
<g>
</g>
<g>
</g>
<g>
</g>
<g>
</g>
<g>
</g>
<g>
</g>
</svg>
